<svg width="106" height="100" viewBox="0 0 106 100" fill="none" xmlns="http://www.w3.org/2000/svg">
<path d="M92.7498 20.8333C87.8473 19.375 82.459 18.75 77.2915 18.75C68.679 18.75 59.404 20.4167 52.9998 25C46.5957 20.4167 37.3207 18.75 28.7082 18.75C20.0957 18.75 10.8207 20.4167 4.4165 25V86.0417C4.4165 87.0833 5.52067 88.125 6.62484 88.125C7.0665 88.125 7.28734 87.9167 7.729 87.9167C13.6915 85.2083 22.304 83.3333 28.7082 83.3333C37.3207 83.3333 46.5957 85 52.9998 89.5833C58.9623 86.0417 69.7832 83.3333 77.2915 83.3333C84.579 83.3333 92.0873 84.5833 98.2707 87.7083C98.7123 87.9167 98.9332 87.9167 99.3748 87.9167C100.479 87.9167 101.583 86.875 101.583 85.8333V25C98.9332 23.125 96.0623 21.875 92.7498 20.8333ZM92.7498 77.0833C87.8915 75.625 82.5915 75 77.2915 75C69.7832 75 58.9623 77.7083 52.9998 81.25V33.3333C58.9623 29.7917 69.7832 27.0833 77.2915 27.0833C82.5915 27.0833 87.8915 27.7083 92.7498 29.1667V77.0833Z" fill="black"/>
<path d="M77.2915 43.75C81.1782 43.75 84.9323 44.125 88.3332 44.8333V38.5C84.844 37.875 81.0898 37.5 77.2915 37.5C69.7832 37.5 62.9815 38.7083 57.4165 40.9583V47.875C62.4073 45.2083 69.3415 43.75 77.2915 43.75Z" fill="black"/>
<path d="M57.4165 52.0417V58.9583C62.4073 56.2917 69.3415 54.8333 77.2915 54.8333C81.1782 54.8333 84.9323 55.2083 88.3332 55.9167V49.5833C84.844 48.9583 81.0898 48.5833 77.2915 48.5833C69.7832 48.5833 62.9815 49.8333 57.4165 52.0417Z" fill="black"/>
<path d="M77.2915 59.7083C69.7832 59.7083 62.9815 60.9167 57.4165 63.1667V70.0833C62.4073 67.4167 69.3415 65.9583 77.2915 65.9583C81.1782 65.9583 84.9323 66.3333 88.3332 67.0417V60.7083C84.844 60.0417 81.0898 59.7083 77.2915 59.7083Z" fill="black"/>
</svg>
