<svg width="55" height="55" viewBox="0 0 55 55" fill="none" xmlns="http://www.w3.org/2000/svg">
<path d="M7.47853 50.6358C7.47853 50.6358 7.42967 51.8653 8.63063 51.8653C10.1247 51.8653 22.4946 51.849 22.4946 51.849L22.515 40.4887C22.515 40.4887 22.3196 38.616 24.1373 38.616H29.8897C32.0392 38.616 31.9069 40.4887 31.9069 40.4887L31.8825 51.8124C31.8825 51.8124 43.6112 51.8124 45.4534 51.8124C46.978 51.8124 46.9088 50.2816 46.9088 50.2816V29.3381L27.7829 12.3251L7.47853 29.3381V50.6358Z" fill="#AC925F"/>
<path d="M0 27.7544C0 27.7544 1.72409 30.9319 5.48372 27.7544L27.9519 8.74666L49.0176 27.6364C53.3695 30.7752 55 27.6364 55 27.6364L27.9519 3.1347L0 27.7544Z" fill="#AC925F"/>
<path d="M48.5067 8.7019H43.0881L43.1105 15.2726L48.5067 19.8505V8.7019Z" fill="#AC925F"/>
</svg>
