<svg width="106" height="100" viewBox="0 0 106 100" fill="none" xmlns="http://www.w3.org/2000/svg">
<path d="M92.75 20.8333C87.8475 19.375 82.4592 18.75 77.2917 18.75C68.6792 18.75 59.4042 20.4167 53 25C46.5958 20.4167 37.3208 18.75 28.7083 18.75C20.0958 18.75 10.8208 20.4167 4.41667 25V86.0417C4.41667 87.0833 5.52084 88.125 6.625 88.125C7.06667 88.125 7.2875 87.9167 7.72917 87.9167C13.6917 85.2083 22.3042 83.3333 28.7083 83.3333C37.3208 83.3333 46.5958 85 53 89.5833C58.9625 86.0417 69.7833 83.3333 77.2917 83.3333C84.5792 83.3333 92.0875 84.5833 98.2708 87.7083C98.7125 87.9167 98.9333 87.9167 99.375 87.9167C100.479 87.9167 101.583 86.875 101.583 85.8333V25C98.9333 23.125 96.0625 21.875 92.75 20.8333ZM92.75 77.0833C87.8917 75.625 82.5917 75 77.2917 75C69.7833 75 58.9625 77.7083 53 81.25V33.3333C58.9625 29.7917 69.7833 27.0833 77.2917 27.0833C82.5917 27.0833 87.8917 27.7083 92.75 29.1667V77.0833Z" fill="#A2A2A2"/>
<path d="M77.2917 43.75C81.1783 43.75 84.9325 44.125 88.3333 44.8333V38.5C84.8442 37.875 81.09 37.5 77.2917 37.5C69.7833 37.5 62.9817 38.7083 57.4167 40.9583V47.875C62.4075 45.2083 69.3417 43.75 77.2917 43.75Z" fill="#A2A2A2"/>
<path d="M57.4167 52.0417V58.9584C62.4075 56.2917 69.3417 54.8334 77.2917 54.8334C81.1783 54.8334 84.9325 55.2084 88.3333 55.9167V49.5834C84.8442 48.9584 81.09 48.5834 77.2917 48.5834C69.7833 48.5834 62.9817 49.8334 57.4167 52.0417Z" fill="#A2A2A2"/>
<path d="M77.2917 59.7084C69.7833 59.7084 62.9817 60.9167 57.4167 63.1667V70.0834C62.4075 67.4167 69.3417 65.9584 77.2917 65.9584C81.1783 65.9584 84.9325 66.3334 88.3333 67.0417V60.7084C84.8442 60.0417 81.09 59.7084 77.2917 59.7084Z" fill="#A2A2A2"/>
</svg>
