<svg width="35" height="35" viewBox="0 0 35 35" fill="none" xmlns="http://www.w3.org/2000/svg">
<path d="M18.5938 31.1719C18.5938 33.2862 16.88 35 14.7656 35C12.6513 35 10.9375 33.2862 10.9375 31.1719C10.9375 29.0575 12.6513 27.3438 14.7656 27.3438C16.88 27.3438 18.5938 29.0575 18.5938 31.1719Z" fill="#57565C"/>
<path d="M31.7188 31.1719C31.7188 33.2862 30.005 35 27.8906 35C25.7763 35 24.0625 33.2862 24.0625 31.1719C24.0625 29.0575 25.7763 27.3438 27.8906 27.3438C30.005 27.3438 31.7188 29.0575 31.7188 31.1719Z" fill="#57565C"/>
<path d="M33.9062 25.1562H9.00047L3.53172 4.375H1.09375C0.489998 4.375 0 3.885 0 3.28125C0 2.6775 0.489998 2.1875 1.09375 2.1875H5.21828L10.687 22.9688H33.9062C34.51 22.9688 35 23.4587 35 24.0625C35 24.6663 34.51 25.1562 33.9062 25.1562Z" fill="#77959E"/>
<path d="M30.625 20.7812H12.3693L8.63306 6.5625H35V16.4062C35 18.8223 33.0411 20.7812 30.625 20.7812Z" fill="#FDD835"/>
<path d="M31.7188 17.5C31.115 17.5 30.625 17.01 30.625 16.4062V9.84375C30.625 9.24 31.115 8.75 31.7188 8.75C32.3225 8.75 32.8125 9.24 32.8125 9.84375V16.4062C32.8125 17.01 32.3225 17.5 31.7188 17.5Z" fill="#FBC02D"/>
<path d="M20.7812 17.5C20.1775 17.5 19.6875 17.01 19.6875 16.4062V9.84375C19.6875 9.24 20.1775 8.75 20.7812 8.75C21.385 8.75 21.875 9.24 21.875 9.84375V16.4062C21.875 17.01 21.385 17.5 20.7812 17.5Z" fill="#FBC02D"/>
<path d="M15.3125 17.5C14.7087 17.5 14.2188 17.01 14.2188 16.4062V9.84375C14.2188 9.24 14.7087 8.75 15.3125 8.75C15.9163 8.75 16.4062 9.24 16.4062 9.84375V16.4062C16.4062 17.01 15.9163 17.5 15.3125 17.5Z" fill="#FBC02D"/>
<path d="M14.7656 32.8125C13.0374 32.8125 11.5904 31.6541 11.1159 30.0781C11.0107 30.4271 10.9375 30.789 10.9375 31.1719C10.9375 33.2827 12.6548 35 14.7656 35C16.8765 35 18.5938 33.2827 18.5938 31.1719C18.5938 30.789 18.5206 30.4271 18.4154 30.0781C17.9409 31.6541 16.4938 32.8125 14.7656 32.8125Z" fill="#2D2D30"/>
<path d="M27.8906 32.8125C26.1624 32.8125 24.7154 31.6541 24.2409 30.0781C24.1357 30.4271 24.0625 30.789 24.0625 31.1719C24.0625 33.2827 25.7798 35 27.8906 35C30.0015 35 31.7188 33.2827 31.7188 31.1719C31.7188 30.789 31.6456 30.4271 31.5404 30.0781C31.0659 31.6541 29.6188 32.8125 27.8906 32.8125Z" fill="#2D2D30"/>
<path d="M30.625 18.5938H11.7949L12.3704 20.7812H30.625C33.0411 20.7812 35 18.8223 35 16.4062V14.2188C35 16.6348 33.0411 18.5938 30.625 18.5938Z" fill="#FBC02D"/>
<path d="M35 6.5625V13.8249C33.1954 16.0671 30.4391 17.5 27.3438 17.5C21.9188 17.5 17.5 13.0812 17.5 7.65625C17.5 7.28428 17.5219 6.92352 17.5657 6.5625H35Z" fill="#FBC02D"/>
<path d="M35 7.65625C35 11.8847 31.5722 15.3125 27.3438 15.3125C23.1153 15.3125 19.6875 11.8847 19.6875 7.65625C19.6875 3.42785 23.1153 0 27.3438 0C31.5722 0 35 3.42785 35 7.65625Z" fill="#4ADEED"/>
<path d="M30.625 6.5625H28.4375V4.375H26.25V6.5625H24.0625V8.75H26.25V10.9375H28.4375V8.75H30.625V6.5625Z" fill="white"/>
</svg>
