<svg width="144" height="112" viewBox="0 0 144 112" fill="none" xmlns="http://www.w3.org/2000/svg">
<path d="M111 98.5C111 105.404 105.404 111 98.5 111C91.5964 111 86 105.404 86 98.5C86 91.5964 91.5964 86 98.5 86C105.404 86 111 91.5964 111 98.5Z" fill="white"/>
<path d="M56 98.5C56 105.404 50.4036 111 43.5 111C36.5964 111 31 105.404 31 98.5C31 91.5964 36.5964 86 43.5 86C50.4036 86 56 91.5964 56 98.5Z" fill="white"/>
<path d="M138.008 86.1436V97.6436H5.00835V86.1436M138.008 86.1436H5.00835M138.008 86.1436C135.175 61.1436 123.508 10.227 55.0083 21.6436C14.2083 28.4436 4.67501 67.477 5.00835 86.1436" stroke="white" stroke-width="5"/>
<circle cx="43.5" cy="98.5" r="7.5" fill="#FB902D"/>
<circle cx="98.5" cy="98.5" r="7.5" fill="#FB902D"/>
<path d="M51 23C77.1486 -7.3359 86.8333 16.68 94 23" stroke="white" stroke-width="4"/>
</svg>
